<svg version="1.1" xmlns="http://www.w3.org/2000/svg" xmlns:xlink="http://www.w3.org/1999/xlink" width="147.71583" height="47.94888" viewBox="0,0,147.71583,47.94888"><defs><linearGradient x1="320.00001" y1="157.75131" x2="320.00001" y2="202.24869" gradientUnits="userSpaceOnUse" id="color-1"><stop offset="0" stop-color="#2e4eff"/><stop offset="1" stop-color="#26cdff"/></linearGradient><linearGradient x1="320.00001" y1="157.75131" x2="320.00001" y2="202.24869" gradientUnits="userSpaceOnUse" id="color-2"><stop offset="0" stop-color="#26cdff"/><stop offset="1" stop-color="#2e4eff"/></linearGradient><linearGradient x1="278.95852" y1="167.45093" x2="278.95852" y2="192.549" gradientUnits="userSpaceOnUse" id="color-3"><stop offset="0" stop-color="#ff3e00"/><stop offset="1" stop-color="#a947e0"/></linearGradient><linearGradient x1="278.95852" y1="168.82254" x2="278.95852" y2="191.17739" gradientUnits="userSpaceOnUse" id="color-4"><stop offset="0" stop-color="#ff3e00"/><stop offset="1" stop-color="#a947e0"/></linearGradient></defs><g transform="translate(-246.14209,-156.00131)"><g stroke-miterlimit="10"><path d="M271.44446,202.20019c0,0 -9.47992,-0.24316 -15.56047,-5.12996c-6.20982,-4.99069 -7.9919,-14.66556 -7.9919,-18.42663c0,-3.25685 3.26229,-13.00619 8.65272,-16.96126c6.74763,-4.95089 14.89965,-3.81977 14.89965,-3.81977h95.893c0,0 8.62915,-0.80033 17.14521,5.48872c6.36623,4.70142 7.62525,14.22594 7.62525,17.53421c0,3.29775 -2.02506,12.83269 -8.88954,17.22699c-7.63325,4.88643 -15.88092,4.08771 -15.88092,4.08771z" fill="url(#color-1)" stroke="url(#color-2)" stroke-width="3.5"/><text transform="translate(310.77437,185.05665) scale(0.42139,0.42139)" font-size="40" xml:space="preserve" fill="#ffffff" stroke="none" stroke-width="1" font-family="Handwriting" font-weight="normal" text-anchor="start"><tspan x="0" dy="0">使用中</tspan></text><path d="M266.40948,192.549v-25.09807h25.09807v25.09807z" fill="none" stroke="url(#color-3)" stroke-width="1"/><path d="M267.7811,191.17739v-22.35484h22.35484v22.35484z" fill="url(#color-4)" stroke="#ffffff" stroke-width="0.5"/></g></g></svg>