<svg version="1.1" xmlns="http://www.w3.org/2000/svg" xmlns:xlink="http://www.w3.org/1999/xlink" width="46.26554" height="70.70621" viewBox="0,0,46.26554,70.70621"><defs><radialGradient cx="319.89898" cy="191.96752" r="23.13277" gradientUnits="userSpaceOnUse" id="color-1"><stop offset="0" stop-color="#b06600"/><stop offset="1" stop-color="#6f3600"/></radialGradient></defs><g transform="translate(-296.86723,-143.3969)"><g stroke-miterlimit="10"><path d="M337.87917,171.27213c0,14.01435 -8.04272,25.37523 -17.96391,25.37523c-9.92119,0 -17.96391,-11.36088 -17.96391,-25.37523c0,-14.01435 8.04272,-25.37523 17.96391,-25.37523c9.92119,0 17.96391,11.36088 17.96391,25.37523z" fill="none" stroke="#7d7d7d" stroke-width="5"/><path d="M296.86723,214.1031v-42.83098h46.26554v42.83098z" fill="url(#color-1)" stroke="none" stroke-width="0"/><path d="M314.14105,187.72483c0,-3.23581 2.62314,-5.85895 5.85895,-5.85895c3.23581,0 5.85895,2.62314 5.85895,5.85895c0,3.23581 -2.62314,5.85895 -5.85895,5.85895c-3.23581,0 -5.85895,-2.62314 -5.85895,-5.85895z" fill="#000000" stroke="none" stroke-width="0"/><path d="M317.5756,203.92054v-14.54637h5.25285v14.54637z" fill="#000000" stroke="none" stroke-width="0"/></g></g></svg>