<svg version="1.1" xmlns="http://www.w3.org/2000/svg" xmlns:xlink="http://www.w3.org/1999/xlink" width="147.71583" height="47.94888" viewBox="0,0,147.71583,47.94888"><defs><linearGradient x1="320.00001" y1="157.75131" x2="320.00001" y2="202.24869" gradientUnits="userSpaceOnUse" id="color-1"><stop offset="0" stop-color="#2e4eff"/><stop offset="1" stop-color="#26cdff"/></linearGradient><linearGradient x1="320.00001" y1="157.75131" x2="320.00001" y2="202.24869" gradientUnits="userSpaceOnUse" id="color-2"><stop offset="0" stop-color="#26cdff"/><stop offset="1" stop-color="#2e4eff"/></linearGradient></defs><g transform="translate(-246.14209,-156.00132)"><g stroke-miterlimit="10"><path d="M271.44446,202.20019c0,0 -9.47992,-0.24316 -15.56047,-5.12996c-6.20982,-4.99069 -7.9919,-14.66556 -7.9919,-18.42663c0,-3.25685 3.26229,-13.00619 8.65272,-16.96126c6.74763,-4.95089 14.89965,-3.81977 14.89965,-3.81977h95.893c0,0 8.62915,-0.80033 17.14521,5.48872c6.36623,4.70142 7.62525,14.22594 7.62525,17.53421c0,3.29775 -2.02506,12.83269 -8.88954,17.22699c-7.63325,4.88643 -15.88092,4.08771 -15.88092,4.08771z" fill="url(#color-1)" stroke="url(#color-2)" stroke-width="3.5" stroke-linecap="butt"/><text transform="translate(310.77436,185.05665) scale(0.42139,0.42139)" font-size="40" xml:space="preserve" fill="#ffffff" stroke="none" stroke-width="1" stroke-linecap="butt" font-family="Handwriting" font-weight="normal" text-anchor="start"><tspan x="0" dy="0">已购买</tspan></text><path d="M288.96585,170.8102l-16.50413,18.37959l-7.50188,-8.25206" fill="none" stroke="#10ff00" stroke-width="5" stroke-linecap="round"/></g></g></svg>