<svg version="1.1" xmlns="http://www.w3.org/2000/svg" xmlns:xlink="http://www.w3.org/1999/xlink" width="116.87623" height="141.56872" viewBox="0,0,116.87623,141.56872"><defs><radialGradient cx="320.00002" cy="162.69234" r="55.93812" gradientUnits="userSpaceOnUse" id="color-1"><stop offset="0" stop-color="#252525"/><stop offset="1" stop-color="#000000"/></radialGradient><radialGradient cx="336.2967" cy="133.71036" r="8.57728" gradientUnits="userSpaceOnUse" id="color-2"><stop offset="0" stop-color="#ffffff"/><stop offset="1" stop-color="#9800ff"/></radialGradient><radialGradient cx="342.72433" cy="117.43352" r="8.57728" gradientUnits="userSpaceOnUse" id="color-3"><stop offset="0" stop-color="#ffffff"/><stop offset="1" stop-color="#9800ff"/></radialGradient><radialGradient cx="320.01986" cy="127.28273" r="8.57728" gradientUnits="userSpaceOnUse" id="color-4"><stop offset="0" stop-color="#ffffff"/><stop offset="1" stop-color="#9800ff"/></radialGradient><radialGradient cx="352.34101" cy="140.04617" r="8.57728" gradientUnits="userSpaceOnUse" id="color-5"><stop offset="0" stop-color="#ffffff"/><stop offset="1" stop-color="#9800ff"/></radialGradient><radialGradient cx="290.78959" cy="124.4285" r="8.57728" gradientUnits="userSpaceOnUse" id="color-6"><stop offset="0" stop-color="#ffffff"/><stop offset="1" stop-color="#ffb900"/></radialGradient><radialGradient cx="282.59845" cy="147.78508" r="8.57728" gradientUnits="userSpaceOnUse" id="color-7"><stop offset="0" stop-color="#ffffff"/><stop offset="1" stop-color="#ffb900"/></radialGradient><radialGradient cx="274.9035" cy="132.3465" r="8.57728" gradientUnits="userSpaceOnUse" id="color-8"><stop offset="0" stop-color="#ffffff"/><stop offset="1" stop-color="#ffb900"/></radialGradient><radialGradient cx="298.48455" cy="139.86709" r="8.57728" gradientUnits="userSpaceOnUse" id="color-9"><stop offset="0" stop-color="#ffffff"/><stop offset="1" stop-color="#ffb900"/></radialGradient><radialGradient cx="330.33053" cy="161.77337" r="8.57728" gradientUnits="userSpaceOnUse" id="color-10"><stop offset="0" stop-color="#ffffff"/><stop offset="1" stop-color="#00f1ff"/></radialGradient><radialGradient cx="314.58362" cy="154.13894" r="8.57728" gradientUnits="userSpaceOnUse" id="color-11"><stop offset="0" stop-color="#ffffff"/><stop offset="1" stop-color="#00f1ff"/></radialGradient><radialGradient cx="362.16178" cy="177.20591" r="8.57728" gradientUnits="userSpaceOnUse" id="color-12"><stop offset="0" stop-color="#ffffff"/><stop offset="1" stop-color="#00f1ff"/></radialGradient><radialGradient cx="346.18992" cy="169.46237" r="8.57728" gradientUnits="userSpaceOnUse" id="color-13"><stop offset="0" stop-color="#ffffff"/><stop offset="1" stop-color="#00f1ff"/></radialGradient><radialGradient cx="297.76734" cy="192.68451" r="8.57728" gradientUnits="userSpaceOnUse" id="color-14"><stop offset="0" stop-color="#ffffff"/><stop offset="1" stop-color="#00ff08"/></radialGradient><radialGradient cx="283.21447" cy="200.47642" r="8.57728" gradientUnits="userSpaceOnUse" id="color-15"><stop offset="0" stop-color="#ffffff"/><stop offset="1" stop-color="#00ff08"/></radialGradient><radialGradient cx="306.98822" cy="170.23372" r="8.57728" gradientUnits="userSpaceOnUse" id="color-16"><stop offset="0" stop-color="#ffffff"/><stop offset="1" stop-color="#00ff08"/></radialGradient><radialGradient cx="291.03583" cy="178.86086" r="8.57728" gradientUnits="userSpaceOnUse" id="color-17"><stop offset="0" stop-color="#ffffff"/><stop offset="1" stop-color="#00ff08"/></radialGradient></defs><g transform="translate(-261.56191,-104.25426)"><g stroke-miterlimit="10"><path d="M264.06191,218.6305v-111.87623h111.87623v111.87623z" fill="url(#color-1)" stroke="#000000" stroke-width="5"/><path d="M327.14237,143.74569l6.30075,-15.95555l15.95555,6.30075l-6.30075,15.95555z" fill="url(#color-2)" stroke="#7800c7" stroke-width="1"/><path d="M333.57,127.46885l6.30075,-15.95555l15.95555,6.30075l-6.30075,15.95555z" fill="url(#color-3)" stroke="#7800c7" stroke-width="1"/><path d="M310.86553,137.31805l6.30075,-15.95555l15.95555,6.30075l-6.30075,15.95555z" fill="url(#color-4)" stroke="#7800c7" stroke-width="1"/><path d="M343.18669,150.08149l6.30075,-15.95555l15.95555,6.30075l-6.30075,15.95555z" fill="url(#color-5)" stroke="#7800c7" stroke-width="1"/><text transform="translate(265.74331,241.28586) scale(0.36297,0.36297)" font-size="40" xml:space="preserve" fill="#00bbff" stroke="none" stroke-width="1" font-family="Sans Serif" font-weight="normal" text-anchor="start"><tspan x="0" dy="0">H+ watch mode</tspan></text><path d="M292.96004,137.53256l-7.65239,-15.35317l15.35317,-7.65239l7.65239,15.35317z" fill="url(#color-6)" stroke="#c79200" stroke-width="1"/><path d="M284.76893,160.88915l-7.65239,-15.35317l15.35317,-7.65239l7.65239,15.35317z" fill="url(#color-7)" stroke="#c79200" stroke-width="1"/><path d="M277.07397,145.45055l-7.65239,-15.35317l15.35317,-7.65239l7.65239,15.35317z" fill="url(#color-8)" stroke="#c79200" stroke-width="1"/><path d="M300.65501,152.97115l-7.65239,-15.35317l15.35317,-7.65239l7.65239,15.35317z" fill="url(#color-9)" stroke="#c79200" stroke-width="1"/><path d="M320.96177,172.57527l7.48376,-15.43607l15.43607,7.48376l-7.48376,15.43607z" fill="url(#color-10)" stroke="#00bdc7" stroke-width="1"/><path d="M305.21486,164.94081l7.48376,-15.43607l15.43607,7.48376l-7.48376,15.43607z" fill="url(#color-11)" stroke="#00bdc7" stroke-width="1"/><path d="M352.79302,188.00778l7.48376,-15.43607l15.43607,7.48376l-7.48376,15.43607z" fill="url(#color-12)" stroke="#00bdc7" stroke-width="1"/><path d="M336.82116,180.26428l7.48376,-15.43607l15.43607,7.48376l-7.48376,15.43607z" fill="url(#color-13)" stroke="#00bdc7" stroke-width="1"/><path d="M300.65427,207.82142l-7.63553,-15.36156l15.36156,-7.63553l7.63553,15.36156z" fill="url(#color-14)" stroke="#00c707" stroke-width="1"/><path d="M284.98337,215.6107l-7.63553,-15.36156l15.36156,-7.63553l7.63553,15.36156z" fill="url(#color-15)" stroke="#00c707" stroke-width="1"/><path d="M308.53522,184.64073l-7.63553,-15.36156l15.36156,-7.63553l7.63553,15.36156z" fill="url(#color-16)" stroke="#00c707" stroke-width="1"/><path d="M292.86433,192.43003l-7.63553,-15.36156l15.36156,-7.63553l7.63553,15.36156z" fill="url(#color-17)" stroke="#00c707" stroke-width="1"/></g></g></svg>