<svg version="1.1" xmlns="http://www.w3.org/2000/svg" xmlns:xlink="http://www.w3.org/1999/xlink" width="86" height="70.33333" viewBox="0,0,86,70.33333"><g transform="translate(-277,-100.16668)"><g stroke-miterlimit="10"><path d="M320,170.16668c-23.74824,0 -43,-15.67004 -43,-35c0,-19.32997 19.25176,-35 43,-35c23.74824,0 43,15.67004 43,35c0,19.32996 -19.25176,35 -43,35z" fill="#007f95" stroke="none" stroke-width="0" stroke-linecap="butt"/><path d="M320,170.50001c-23.74824,0 -43,-15.67004 -43,-35c0,-19.32997 19.25176,-35 43,-35c23.74824,0 43,15.67004 43,35c0,19.32996 -19.25176,35 -43,35z" fill="#007f95" stroke="none" stroke-width="0" stroke-linecap="butt"/><path d="M320,170.16668c-23.74824,0 -43,-15.67004 -43,-35c0,-19.32997 19.25176,-35 43,-35c23.74824,0 43,15.67004 43,35c0,19.32996 -19.25176,35 -43,35z" fill="#00daff" stroke="none" stroke-width="0" stroke-linecap="butt"/><g fill="none" stroke="#ffd200" stroke-width="1.5"><path d="M343.99685,133.51356c0.61985,3.69521 -0.40893,7.56074 -3.29431,10.99606c-6.88549,8.19781 -21.73611,10.84138 -33.16981,5.90457c-11.4337,-4.9368 -15.12075,-15.5845 -8.23526,-23.78231c3.59418,-4.27921 9.3587,-7.04502 15.67464,-8.00923l-6.78861,9.47462" stroke-linecap="butt"/><path d="M301.57636,117.43284l14.00468,0.46716" stroke-linecap="round"/></g></g></g></svg>