<svg version="1.1" xmlns="http://www.w3.org/2000/svg" xmlns:xlink="http://www.w3.org/1999/xlink" width="94.83334" height="94.83334" viewBox="0,0,94.83334,94.83334"><defs><linearGradient x1="320" y1="135.33333" x2="320" y2="224.66667" gradientUnits="userSpaceOnUse" id="color-1"><stop offset="0" stop-color="#2eff87"/><stop offset="1" stop-color="#fdff26"/></linearGradient><linearGradient x1="320" y1="135.33333" x2="320" y2="224.66667" gradientUnits="userSpaceOnUse" id="color-2"><stop offset="0" stop-color="#fdff26"/><stop offset="1" stop-color="#2eff87"/></linearGradient></defs><g transform="translate(-272.58333,-132.58333)"><g stroke-width="5.5" stroke-miterlimit="10"><path d="M275.33333,180c0,-24.66872 19.99795,-44.66667 44.66667,-44.66667c24.66872,0 44.66667,19.99795 44.66667,44.66667c0,24.66872 -19.99795,44.66667 -44.66667,44.66667c-24.66872,0 -44.66667,-19.99795 -44.66667,-44.66667z" fill="url(#color-1)" stroke="url(#color-2)" stroke-linecap="butt"/><g fill="none" stroke="#ffffff"><path d="M314.6536,191.16088l-8.14359,-25.73115h45.92987l-8.14359,25.43539z" stroke-linecap="butt"/><path d="M321.1925,166.79701l3.38827,22.90204" stroke-linecap="round"/><path d="M338.13385,166.45519l-3.76474,23.24386" stroke-linecap="round"/><path d="M310.27474,178.41894h35.76507" stroke-linecap="round"/><path d="M306.88647,166.45519l-4.14122,-10.59646h-15.18513" stroke-linecap="round"/><path d="M310.75735,198.00366c0,-3.38971 2.43416,-6.13761 5.43685,-6.13761c3.00269,0 5.43685,2.7479 5.43685,6.13761c0,3.38971 -2.43416,6.13761 -5.43685,6.13761c-3.00269,0 -5.43685,-2.7479 -5.43685,-6.13761z" stroke-linecap="butt"/><path d="M336.49178,198.00366c0,-3.38971 2.43416,-6.13761 5.43685,-6.13761c3.00269,0 5.43685,2.7479 5.43685,6.13761c0,3.38971 -2.43416,6.13761 -5.43685,6.13761c-3.00269,0 -5.43685,-2.7479 -5.43685,-6.13761z" stroke-linecap="butt"/></g></g></g></svg>