<svg version="1.1" xmlns="http://www.w3.org/2000/svg" xmlns:xlink="http://www.w3.org/1999/xlink" width="95.65402" height="146.76637" viewBox="0,0,95.65402,146.76637"><defs><radialGradient cx="319.79115" cy="201.19237" r="47.82701" gradientUnits="userSpaceOnUse" id="color-1"><stop offset="0" stop-color="#b06600"/><stop offset="1" stop-color="#6f3600"/></radialGradient></defs><g transform="translate(-272.17299,-100.19134)"><g stroke-miterlimit="10"><path d="M356.9652,158.40464c0,28.97468 -16.62832,52.4633 -37.14039,52.4633c-20.51207,0 -37.14039,-23.48862 -37.14039,-52.4633c0,-28.97468 16.62832,-52.4633 37.14039,-52.4633c20.51207,0 37.14039,23.48862 37.14039,52.4633z" fill="none" stroke="#7d7d7d" stroke-width="11.5"/><path d="M272.17299,246.95771v-88.55307h95.65402v88.55307z" fill="url(#color-1)" stroke="none" stroke-width="0"/><path d="M307.88661,192.42061c0,-6.69004 5.42335,-12.11339 12.11339,-12.11339c6.69004,0 12.11339,5.42335 12.11339,12.11339c0,6.69004 -5.42335,12.11339 -12.11339,12.11339c-6.69004,0 -12.11339,-5.42335 -12.11339,-12.11339z" fill="#000000" stroke="none" stroke-width="0"/><path d="M314.98756,225.90526v-30.07463h10.86028v30.07463z" fill="#000000" stroke="none" stroke-width="0"/></g></g></svg>