<svg version="1.1" xmlns="http://www.w3.org/2000/svg" xmlns:xlink="http://www.w3.org/1999/xlink" width="51.8815" height="22.667" viewBox="0,0,51.8815,22.667"><g transform="translate(-294.05925,-168.6665)"><g stroke="none" stroke-miterlimit="10"><path d="M305.15909,191.3335v-22.667h29.76126v22.667z" fill="#5f5f5f" stroke-width="0"/><path d="M323.38794,179.99699c0,-6.22778 5.04862,-11.2764 11.2764,-11.2764c6.22779,0 11.2764,5.04862 11.2764,11.2764c0,6.22778 -5.04862,11.2764 -11.2764,11.2764c-6.22779,0 -11.2764,-5.04862 -11.2764,-11.2764z" fill="#5f5f5f" stroke-width="NaN"/><path d="M294.05925,179.99699c0,-6.22779 5.04862,-11.2764 11.2764,-11.2764c6.22779,0 11.2764,5.04862 11.2764,11.2764c0,6.22779 -5.04862,11.2764 -11.2764,11.2764c-6.22779,0 -11.2764,-5.04862 -11.2764,-11.2764z" fill="#ffffff" stroke-width="NaN"/></g></g></svg>