<svg version="1.1" xmlns="http://www.w3.org/2000/svg" xmlns:xlink="http://www.w3.org/1999/xlink" width="110.81399" height="27.63803" viewBox="0,0,110.81399,27.63803"><defs><linearGradient x1="265.60365" y1="235.87997" x2="265.60365" y2="261.518" gradientUnits="userSpaceOnUse" id="color-1"><stop offset="0" stop-color="#2e4eff"/><stop offset="1" stop-color="#26cdff"/></linearGradient><linearGradient x1="265.60365" y1="235.87997" x2="265.60365" y2="261.518" gradientUnits="userSpaceOnUse" id="color-2"><stop offset="0" stop-color="#26cdff"/><stop offset="1" stop-color="#2e4eff"/></linearGradient></defs><g transform="translate(-210.19666,-234.87996)"><g stroke-miterlimit="10"><g><path d="M211.19666,261.518v-25.63803h108.81399v25.63803z" fill="url(#color-1)" stroke="url(#color-2)" stroke-width="2" stroke-linecap="butt"/><text transform="translate(256.33346,253.57554) scale(0.40369,0.40369)" font-size="40" xml:space="preserve" fill="#7af2ff" stroke="none" stroke-width="1" stroke-linecap="butt" font-family="Sans Serif" font-weight="normal" text-anchor="start"><tspan x="0" dy="0">成就</tspan></text><path d="M219.27765,250.94927l-5.28673,-12.08651l7.35564,0.09425l3.753,7.55502z" fill="#ff0000" stroke="#000000" stroke-width="0.5" stroke-linecap="butt"/><path d="M227.2368,246.51203l3.753,-7.55503l7.35564,-0.09424l-5.28673,12.08651z" fill="#ff0000" stroke="#000000" stroke-width="0.5" stroke-linecap="butt"/><path d="M218.1858,249.86806c0,-4.33154 3.51141,-7.84295 7.84295,-7.84295c4.33154,0 7.84295,3.51141 7.84295,7.84295c0,4.33154 -3.51141,7.84295 -7.84295,7.84295c-4.33154,0 -7.84295,-3.51141 -7.84295,-7.84295z" fill="#ffc500" stroke="#000000" stroke-width="0.75" stroke-linecap="butt"/><path d="M224.824,248.64961l1.34763,-3.38511l1.21794,3.32076l3.36578,0.56435l-2.34051,2.54173l0.54945,2.71415l-2.93318,-1.78492l-3.01684,1.53938l0.98058,-2.67759l-2.49045,-2.44864z" fill="#ffa100" stroke="#000000" stroke-width="0.5" stroke-linecap="round"/></g></g></g></svg>