<svg version="1.1" xmlns="http://www.w3.org/2000/svg" xmlns:xlink="http://www.w3.org/1999/xlink" width="86" height="77.66667" viewBox="0,0,86,77.66667"><g transform="translate(-277,-293.70121)"><g stroke-miterlimit="10"><path d="M277,336.36788c0,-19.32996 19.25176,-35 43,-35c23.74824,0 43,15.67003 43,35c0,19.32996 -19.25176,35 -43,35c-23.74824,0 -43,-15.67004 -43,-35z" fill="#007f95" stroke="none" stroke-width="0" stroke-linecap="butt"/><path d="M277,328.70121c0,-19.32996 19.25176,-35 43,-35c23.74824,0 43,15.67003 43,35c0,19.32996 -19.25176,35 -43,35c-23.74824,0 -43,-15.67003 -43,-35z" fill="#00daff" stroke="none" stroke-width="0" stroke-linecap="butt"/><g fill="none" stroke="#ffd200" stroke-width="1.5"><path d="M332.8086,319.95421l-6.78861,-9.47462c6.31594,0.96421 12.08046,3.73002 15.67464,8.00923c6.88549,8.19781 3.19844,18.84551 -8.23526,23.78231c-11.4337,4.93681 -26.28432,2.29324 -33.16981,-5.90457c-2.88538,-3.43532 -3.91416,-7.30085 -3.29431,-10.99606" stroke-linecap="butt"/><path d="M339.41574,309.28978l-14.00468,0.46716" stroke-linecap="round"/></g></g></g></svg>