<svg version="1.1" xmlns="http://www.w3.org/2000/svg" xmlns:xlink="http://www.w3.org/1999/xlink" width="110.81399" height="27.63803" viewBox="0,0,110.81399,27.63803"><defs><linearGradient x1="265.60365" y1="208.44083" x2="265.60365" y2="234.07887" gradientUnits="userSpaceOnUse" id="color-1"><stop offset="0" stop-color="#2e4eff"/><stop offset="1" stop-color="#26cdff"/></linearGradient><linearGradient x1="265.60365" y1="208.44083" x2="265.60365" y2="234.07887" gradientUnits="userSpaceOnUse" id="color-2"><stop offset="0" stop-color="#26cdff"/><stop offset="1" stop-color="#2e4eff"/></linearGradient><linearGradient x1="265.60365" y1="208.44083" x2="265.60365" y2="234.07887" gradientUnits="userSpaceOnUse" id="color-3"><stop offset="0" stop-color="#2e4eff"/><stop offset="1" stop-color="#26cdff"/></linearGradient><linearGradient x1="265.60365" y1="208.44083" x2="265.60365" y2="234.07887" gradientUnits="userSpaceOnUse" id="color-4"><stop offset="0" stop-color="#26cdff"/><stop offset="1" stop-color="#2e4eff"/></linearGradient></defs><g transform="translate(-210.19666,-207.44083)"><g stroke-miterlimit="10"><g><path d="M211.19666,234.07887v-25.63803h108.81399v25.63803z" fill="url(#color-1)" stroke="url(#color-2)" stroke-width="2" stroke-linecap="butt"/><path d="M216.43112,221.11169c0,-4.66363 3.78062,-8.44424 8.44424,-8.44424c4.66363,0 8.44424,3.78062 8.44424,8.44424c0,4.66363 -3.78062,8.44424 -8.44424,8.44424c-4.66363,0 -8.44424,-3.78062 -8.44424,-8.44424z" fill="#ff9826" stroke="#ffce95" stroke-width="1" stroke-linecap="butt"/><path d="M224.56561,226.88933l-0.08081,-7.99981" fill="none" stroke="#ffce95" stroke-width="1" stroke-linecap="round"/><path d="M223.94609,216.51923c0,-0.32727 0.26531,-0.59258 0.59258,-0.59258c0.32727,0 0.59258,0.26531 0.59258,0.59258c0,0.32727 -0.26531,0.59258 -0.59258,0.59258c-0.32727,0 -0.59258,-0.26531 -0.59258,-0.59258z" fill="#000000" stroke="#ffce95" stroke-width="1" stroke-linecap="butt"/><text transform="translate(254.2282,226.17979) scale(0.40369,0.40369)" font-size="40" xml:space="preserve" fill="#7af2ff" stroke="none" stroke-width="1" stroke-linecap="butt" font-family="Sans Serif" font-weight="normal" text-anchor="start"><tspan x="0" dy="0">关于</tspan></text></g><g><path d="M211.19666,234.07887v-25.63803h108.81399v25.63803z" fill="url(#color-3)" stroke="url(#color-4)" stroke-width="2" stroke-linecap="butt"/><path d="M216.43112,221.11169c0,-4.66363 3.78062,-8.44424 8.44424,-8.44424c4.66363,0 8.44424,3.78062 8.44424,8.44424c0,4.66363 -3.78062,8.44424 -8.44424,8.44424c-4.66363,0 -8.44424,-3.78062 -8.44424,-8.44424z" fill="#ff9826" stroke="#ffce95" stroke-width="1" stroke-linecap="butt"/><path d="M224.56561,226.88933l-0.08081,-7.99981" fill="none" stroke="#ffce95" stroke-width="1" stroke-linecap="round"/><path d="M223.94609,216.51923c0,-0.32727 0.26531,-0.59258 0.59258,-0.59258c0.32727,0 0.59258,0.26531 0.59258,0.59258c0,0.32727 -0.26531,0.59258 -0.59258,0.59258c-0.32727,0 -0.59258,-0.26531 -0.59258,-0.59258z" fill="#000000" stroke="#ffce95" stroke-width="1" stroke-linecap="butt"/><text transform="translate(254.2282,226.17979) scale(0.40369,0.40369)" font-size="40" xml:space="preserve" fill="#7af2ff" stroke="none" stroke-width="1" stroke-linecap="butt" font-family="Sans Serif" font-weight="normal" text-anchor="start"><tspan x="0" dy="0">关于</tspan></text></g></g></g></svg>