<svg version="1.1" xmlns="http://www.w3.org/2000/svg" xmlns:xlink="http://www.w3.org/1999/xlink" width="52.48317" height="52.48318" viewBox="0,0,52.48317,52.48318"><defs><linearGradient x1="320" y1="155.75841" x2="320" y2="204.24159" gradientUnits="userSpaceOnUse" id="color-1"><stop offset="0" stop-color="#2e4eff"/><stop offset="1" stop-color="#26cdff"/></linearGradient><linearGradient x1="320" y1="155.75841" x2="320" y2="204.24159" gradientUnits="userSpaceOnUse" id="color-2"><stop offset="0" stop-color="#26cdff"/><stop offset="1" stop-color="#2e4eff"/></linearGradient><linearGradient x1="320.17038" y1="179.74443" x2="320.17038" y2="189.93147" gradientUnits="userSpaceOnUse" id="color-3"><stop offset="0" stop-color="#ffec19"/><stop offset="1" stop-color="#ffffff"/></linearGradient><linearGradient x1="320" y1="163.62983" x2="320" y2="180.25557" gradientUnits="userSpaceOnUse" id="color-4"><stop offset="0" stop-color="#ffec19"/><stop offset="1" stop-color="#ffffff"/></linearGradient></defs><g transform="translate(-293.75841,-153.75841)"><g stroke-miterlimit="10"><path d="M295.75841,180c0,-13.38825 10.85333,-24.24159 24.24158,-24.24159c13.38826,0 24.24159,10.85333 24.24159,24.24159c0,13.38825 -10.85333,24.24159 -24.24159,24.24159c-13.38826,0 -24.24158,-10.85333 -24.24158,-24.24159z" fill="url(#color-1)" stroke="url(#color-2)" stroke-width="4"/><g stroke="none"><path d="M323.49278,196.37017v-16.62574h9.20048v16.62574z" fill="#ffffff" stroke-width="0.5"/><path d="M307.6475,196.37017v-16.62574h9.20048v16.62574z" fill="#ffffff" stroke-width="0.5"/><path d="M307.6475,189.93147v-10.18704h25.04576v10.18704z" fill="url(#color-3)" stroke-width="0.5"/><path d="M303.37426,180.25557l16.62573,-16.62574l16.62574,16.62574z" fill="url(#color-4)" stroke-width="0"/></g></g></g></svg>