<svg version="1.1" xmlns="http://www.w3.org/2000/svg" xmlns:xlink="http://www.w3.org/1999/xlink" width="228.60194" height="66.17742" viewBox="0,0,228.60194,66.17742"><defs><linearGradient x1="311.93577" y1="124.15906" x2="311.93577" y2="134.71459" gradientUnits="userSpaceOnUse" id="color-1"><stop offset="0" stop-color="#ffffff"/><stop offset="1" stop-color="#767676"/></linearGradient><linearGradient x1="297.70079" y1="96.25783" x2="297.70079" y2="161.32736" gradientUnits="userSpaceOnUse" id="color-2"><stop offset="0" stop-color="#ffffff"/><stop offset="1" stop-color="#767676"/></linearGradient><linearGradient x1="243.88787" y1="97.14573" x2="243.88787" y2="161.72787" gradientUnits="userSpaceOnUse" id="color-3"><stop offset="0" stop-color="#ffffff"/><stop offset="1" stop-color="#767676"/></linearGradient><linearGradient x1="228.81909" y1="96.92729" x2="228.81909" y2="112.22076" gradientUnits="userSpaceOnUse" id="color-4"><stop offset="0" stop-color="#ffffff"/><stop offset="1" stop-color="#767676"/></linearGradient><linearGradient x1="344.77384" y1="129.74424" x2="344.77384" y2="153.01547" gradientUnits="userSpaceOnUse" id="color-5"><stop offset="0" stop-color="#ffffff"/><stop offset="1" stop-color="#767676"/></linearGradient><linearGradient x1="344.37339" y1="114.93596" x2="382.00073" y2="114.93596" gradientUnits="userSpaceOnUse" id="color-6"><stop offset="0" stop-color="#ffffff"/><stop offset="1" stop-color="#767676"/></linearGradient><linearGradient x1="338.91059" y1="96.73185" x2="338.91059" y2="161.80138" gradientUnits="userSpaceOnUse" id="color-7"><stop offset="0" stop-color="#ffffff"/><stop offset="1" stop-color="#767676"/></linearGradient><linearGradient x1="230.12354" y1="148.03836" x2="230.12354" y2="162.22073" gradientUnits="userSpaceOnUse" id="color-8"><stop offset="0" stop-color="#ffffff"/><stop offset="1" stop-color="#767676"/></linearGradient><linearGradient x1="384.91104" y1="97.08993" x2="384.91104" y2="161.67206" gradientUnits="userSpaceOnUse" id="color-9"><stop offset="0" stop-color="#ffffff"/><stop offset="1" stop-color="#767676"/></linearGradient><linearGradient x1="326.03412" y1="96.90205" x2="326.03412" y2="161.97159" gradientUnits="userSpaceOnUse" id="color-10"><stop offset="0" stop-color="#ffffff"/><stop offset="1" stop-color="#767676"/></linearGradient><linearGradient x1="404.36746" y1="96.90205" x2="404.36746" y2="161.97159" gradientUnits="userSpaceOnUse" id="color-11"><stop offset="0" stop-color="#ffffff"/><stop offset="1" stop-color="#750000"/></linearGradient><linearGradient x1="432.14523" y1="96.90205" x2="432.14523" y2="161.97159" gradientUnits="userSpaceOnUse" id="color-12"><stop offset="0" stop-color="#ffffff"/><stop offset="1" stop-color="#750000"/></linearGradient><linearGradient x1="270.34973" y1="96.6711" x2="270.34973" y2="161.09099" gradientUnits="userSpaceOnUse" id="color-13"><stop offset="0" stop-color="#ffffff"/><stop offset="1" stop-color="#767676"/></linearGradient><linearGradient x1="270.43395" y1="96.5089" x2="270.43395" y2="120.07633" gradientUnits="userSpaceOnUse" id="color-14"><stop offset="0" stop-color="#ffffff"/><stop offset="1" stop-color="#767676"/></linearGradient></defs><g transform="translate(-208.21459,-96.04332)"><g stroke-miterlimit="10"><path d="M298.32468,134.71459v-10.55556h27.22222v10.55556z" fill="url(#color-1)" stroke="none" stroke-width="0"/><path d="M302.37208,161.25189l-8.87312,0.07548l-0.46947,-64.99406l8.87312,-0.07548z" fill="url(#color-2)" stroke="none" stroke-width="0"/><path d="M222.06041,161.65299l-10.82944,0.07491l26.9557,-64.50723l10.82945,-0.07491z" fill="url(#color-3)" stroke="none" stroke-width="0"/><path d="M208.38348,112.22076l-0.16889,-15.29349h41.04009l-4.36597,8.42002h-29.96895z" fill="url(#color-4)" stroke="none" stroke-width="0"/><g><path d="M375.44828,162.00313l-9.2785,0.02699l-24.63674,-31.30365l9.03968,-1.45989z" fill="url(#color-5)" stroke="none" stroke-width="0"/><path d="M342.39306,101.04333c20.73763,0 28.62716,4.64197 28.62716,12.6962c0,7.87991 -7.85598,14.12855 -27.9726,14.40278" fill="none" stroke="url(#color-6)" stroke-width="10"/><path d="M343.58189,161.72591l-8.87312,0.07548l-0.46947,-64.99407l8.87312,-0.07548z" fill="url(#color-7)" stroke="none" stroke-width="0"/></g><path d="M214.55755,153.30136l28.85784,1.11111l7.31264,-5.41799l-0.16889,13.22627h-41.04009z" fill="url(#color-8)" stroke="none" stroke-width="0"/><path d="M389.84029,161.59715l-9.36311,0.07491l-0.49539,-64.50723l9.36311,-0.07491z" fill="url(#color-9)" stroke="none" stroke-width="0"/><path d="M330.70541,161.8961l-8.87312,0.07548l-0.46947,-64.99406l8.87312,-0.07548z" fill="url(#color-10)" stroke="none" stroke-width="0"/><path d="M436.81653,161.34053l-8.87312,0.07548l-28.24725,-64.4385l8.87312,-0.07548z" fill="url(#color-11)" stroke="none" stroke-width="0"/><path d="M427.94341,96.90207l8.87312,0.07548l-28.24724,64.43851l-8.87312,-0.07548z" fill="url(#color-12)" stroke="none" stroke-width="0"/><g stroke="none" stroke-width="0"><path d="M274.97438,161.01629l-8.78453,0.07472l-0.46478,-64.34515l8.78453,-0.07472z" fill="url(#color-13)"/><path d="M250.0497,120.07633l-0.16847,-23.56746h40.93697l0.16847,21.97866l-7.29427,-9.0033h-27.12285z" fill="url(#color-14)"/></g></g></g></svg>