<svg version="1.1" xmlns="http://www.w3.org/2000/svg" xmlns:xlink="http://www.w3.org/1999/xlink" width="225.84865" height="65.98684" viewBox="0,0,225.84865,65.98684"><defs><linearGradient x1="254.839" y1="129.35851" x2="289.67256" y2="129.35851" gradientUnits="userSpaceOnUse" id="color-1"><stop offset="0" stop-color="#ffffff"/><stop offset="1" stop-color="#767676"/></linearGradient><linearGradient x1="272.25578" y1="161.67204" x2="272.25578" y2="143.40527" gradientUnits="userSpaceOnUse" id="color-2"><stop offset="0" stop-color="#767676"/><stop offset="1" stop-color="#ffffff"/></linearGradient><linearGradient x1="272.25578" y1="97.08989" x2="272.25578" y2="115.35664" gradientUnits="userSpaceOnUse" id="color-3"><stop offset="0" stop-color="#ffffff"/><stop offset="1" stop-color="#767676"/></linearGradient><linearGradient x1="258.15053" y1="97.08988" x2="258.15053" y2="161.67202" gradientUnits="userSpaceOnUse" id="color-4"><stop offset="0" stop-color="#ffffff"/><stop offset="1" stop-color="#767676"/></linearGradient><linearGradient x1="303.56402" y1="129.27019" x2="303.56402" y2="152.54142" gradientUnits="userSpaceOnUse" id="color-5"><stop offset="0" stop-color="#ffffff"/><stop offset="1" stop-color="#767676"/></linearGradient><linearGradient x1="303.16358" y1="114.46189" x2="340.7909" y2="114.46189" gradientUnits="userSpaceOnUse" id="color-6"><stop offset="0" stop-color="#ffffff"/><stop offset="1" stop-color="#767676"/></linearGradient><linearGradient x1="297.70077" y1="96.25778" x2="297.70077" y2="161.32733" gradientUnits="userSpaceOnUse" id="color-7"><stop offset="0" stop-color="#ffffff"/><stop offset="1" stop-color="#767676"/></linearGradient><linearGradient x1="229.84574" y1="97.08986" x2="229.84574" y2="161.67202" gradientUnits="userSpaceOnUse" id="color-8"><stop offset="0" stop-color="#ffffff"/><stop offset="1" stop-color="#767676"/></linearGradient><linearGradient x1="229.93017" y1="96.92725" x2="229.93017" y2="120.55405" gradientUnits="userSpaceOnUse" id="color-9"><stop offset="0" stop-color="#ffffff"/><stop offset="1" stop-color="#767676"/></linearGradient><linearGradient x1="344.77381" y1="129.74422" x2="344.77381" y2="153.01545" gradientUnits="userSpaceOnUse" id="color-10"><stop offset="0" stop-color="#ffffff"/><stop offset="1" stop-color="#767676"/></linearGradient><linearGradient x1="344.37338" y1="114.93591" x2="382.00069" y2="114.93591" gradientUnits="userSpaceOnUse" id="color-11"><stop offset="0" stop-color="#ffffff"/><stop offset="1" stop-color="#767676"/></linearGradient><linearGradient x1="338.91056" y1="96.7318" x2="338.91056" y2="161.80135" gradientUnits="userSpaceOnUse" id="color-12"><stop offset="0" stop-color="#ffffff"/><stop offset="1" stop-color="#767676"/></linearGradient><linearGradient x1="384.91101" y1="97.08988" x2="384.91101" y2="161.67204" gradientUnits="userSpaceOnUse" id="color-13"><stop offset="0" stop-color="#ffffff"/><stop offset="1" stop-color="#767676"/></linearGradient><linearGradient x1="415.45532" y1="115.50003" x2="392.10139" y2="111.52772" gradientUnits="userSpaceOnUse" id="color-14"><stop offset="0" stop-color="#ffffff"/><stop offset="1" stop-color="#767676"/></linearGradient><linearGradient x1="412.81041" y1="142.26244" x2="436.16432" y2="146.23475" gradientUnits="userSpaceOnUse" id="color-15"><stop offset="0" stop-color="#ffffff"/><stop offset="1" stop-color="#767676"/></linearGradient></defs><g transform="translate(-209.32568,-96.04328)"><g stroke-miterlimit="10"><g stroke="none" stroke-width="0"><path d="M254.839,134.56564v-10.41427h34.83357v10.41427z" fill="url(#color-1)"/><path d="M259.89383,151.61504h24.18363l6.50381,-6.9783l-0.1502,17.03529h-36.50076l0.1502,-18.26676z" fill="url(#color-2)"/><path d="M254.0805,115.35664l-0.1502,-18.26676h36.50076l0.1502,17.03529l-6.50381,-6.9783h-24.18363z" fill="url(#color-3)"/><path d="M262.67366,161.59712l-8.59168,0.07491l-0.45458,-64.50724l8.59167,-0.07491z" fill="url(#color-4)"/></g><g><path d="M334.23845,161.5291l-9.2785,0.02699l-24.63673,-31.30364l9.03968,-1.45989z" fill="url(#color-5)" stroke="none" stroke-width="0"/><path d="M301.18324,100.56927c20.73763,0 28.62716,4.64197 28.62716,12.6962c0,7.87991 -7.85598,14.12855 -27.9726,14.40278" fill="none" stroke="url(#color-6)" stroke-width="9"/><path d="M302.37206,161.25186l-8.87312,0.07548l-0.46947,-64.99406l8.87312,-0.07548z" fill="url(#color-7)" stroke="none" stroke-width="0"/></g><g stroke="none" stroke-width="0"><path d="M234.48204,161.59713l-8.80666,0.07491l-0.46595,-64.50723l8.80666,-0.07491z" fill="url(#color-8)"/><path d="M209.49457,120.55405l-0.16889,-23.62683h41.04009l0.16889,22.03402l-7.31264,-9.02598h-27.19117z" fill="url(#color-9)"/></g><g><path d="M375.44825,162.00313l-9.2785,0.02699l-24.63674,-31.30365l9.03968,-1.45989z" fill="url(#color-10)" stroke="none" stroke-width="0"/><path d="M342.39302,101.04328c20.73763,0 28.62716,4.64197 28.62716,12.6962c0,7.87991 -7.85598,14.12855 -27.9726,14.40278" fill="none" stroke="url(#color-11)" stroke-width="10"/><path d="M343.58186,161.72589l-8.87312,0.07548l-0.46947,-64.99407l8.87312,-0.07548z" fill="url(#color-12)" stroke="none" stroke-width="0"/></g><path d="M389.84025,161.59713l-9.36311,0.07491l-0.49539,-64.50723l9.36311,-0.07491z" fill="url(#color-13)" stroke="none" stroke-width="0"/><g fill="none" stroke-width="9"><path d="M414.28073,128.91897c-12.44418,-2.39945 -16.375,-9.51181 -15.18317,-17.43505c0.54568,-3.6276 4.59102,-9.30314 10.43039,-10.29524c7.19685,-1.22274 15.2691,0.63027 21.14638,7.05572" stroke="url(#color-14)"/><path d="M413.98501,128.8435c12.44418,2.39945 16.37499,9.5118 15.18316,17.43504c-0.54568,3.62761 -4.59102,9.30315 -10.43039,10.29525c-7.19685,1.22274 -15.26911,-0.63027 -21.14638,-7.05572" stroke="url(#color-15)"/></g></g></g></svg>