<svg version="1.1" xmlns="http://www.w3.org/2000/svg" xmlns:xlink="http://www.w3.org/1999/xlink" width="7.26066" height="24.38773" viewBox="0,0,7.26066,24.38773"><g transform="translate(-316.36408,-167.64455)"><g stroke-miterlimit="10"><path d="M316.37528,188.55487v-17.10974h7.24946v17.10974z" fill="#666666" stroke="none" stroke-width="0" stroke-linecap="butt"/><path d="M321.7399,177.04735h-3.47974" fill="none" stroke="#888888" stroke-width="2.5" stroke-linecap="round"/><path d="M321.95738,183.26158l-3.91471,-0.15191" fill="none" stroke="#888888" stroke-width="2.5" stroke-linecap="round"/><path d="M316.36409,171.26928c0,-2.00188 1.62285,-3.62473 3.62473,-3.62473c2.00188,0 3.62473,1.62285 3.62473,3.62473c0,2.00188 -1.62285,3.62473 -3.62473,3.62473c-2.00188,0 -3.62473,-1.62285 -3.62473,-3.62473z" fill="#666666" stroke="none" stroke-width="0" stroke-linecap="butt"/><path d="M316.36409,188.40755c0,-2.00188 1.62284,-3.62473 3.62473,-3.62473c2.00189,0 3.62473,1.62285 3.62473,3.62473c0,2.00188 -1.62284,3.62473 -3.62473,3.62473c-2.00189,0 -3.62473,-1.62285 -3.62473,-3.62473z" fill="#666666" stroke="none" stroke-width="0" stroke-linecap="butt"/></g></g></svg>