<svg version="1.1" xmlns="http://www.w3.org/2000/svg" xmlns:xlink="http://www.w3.org/1999/xlink" width="110.81399" height="27.63804" viewBox="0,0,110.81399,27.63804"><defs><linearGradient x1="265.52124" y1="180.96014" x2="265.52124" y2="206.59818" gradientUnits="userSpaceOnUse" id="color-1"><stop offset="0" stop-color="#2e4eff"/><stop offset="1" stop-color="#26cdff"/></linearGradient><linearGradient x1="265.52124" y1="180.96014" x2="265.52124" y2="206.59818" gradientUnits="userSpaceOnUse" id="color-2"><stop offset="0" stop-color="#26cdff"/><stop offset="1" stop-color="#2e4eff"/></linearGradient></defs><g transform="translate(-210.11424,-179.96014)"><g stroke-miterlimit="10"><path d="M211.11424,206.59818v-25.63804h108.81399v25.63804z" fill="url(#color-1)" stroke="url(#color-2)" stroke-width="2"/><text transform="translate(254.14578,198.84833) scale(0.40369,0.40369)" font-size="40" xml:space="preserve" fill="#7af2ff" stroke="none" stroke-width="1" font-family="Sans Serif" font-weight="normal" text-anchor="start"><tspan x="0" dy="0">设置</tspan></text><path d="M215.4225,193.76251c0,-4.91533 3.98467,-8.9 8.9,-8.9c4.91533,0 8.9,3.98467 8.9,8.9c0,4.91533 -3.98467,8.9 -8.9,8.9c-4.91533,0 -8.9,-3.98467 -8.9,-8.9zM224.32847,198.52629c2.76142,0 5,-2.23858 5,-5c0,-2.76142 -2.23858,-5 -5,-5c-2.76142,0 -5,2.23858 -5,5c0,2.76142 2.23858,5 5,5z" fill="#ffffff" stroke="none" stroke-width="NaN"/><path d="M220.40726,185.89298v-2.88571h7.42857v2.88571z" fill="#ffffff" stroke="none" stroke-width="0"/><path d="M228.92997,186.55661l2.71715,-1.75198l3.97883,6.04373l-2.71715,1.75198z" fill="#ffffff" stroke="none" stroke-width="0"/><path d="M216.02808,193.40988l-2.71716,-1.75197l3.97883,-6.04374l2.71715,1.75198z" fill="#ffffff" stroke="none" stroke-width="0"/><path d="M220.86405,200.46741l-2.71715,1.75198l-3.97883,-6.04373l2.71715,-1.75198z" fill="#ffffff" stroke="none" stroke-width="0"/><path d="M221.16916,204.10251v-3.08571h7.42857v3.08571z" fill="#ffffff" stroke="none" stroke-width="0"/><path d="M232.76594,194.1856l2.71715,1.75197l-3.97883,6.04373l-2.71715,-1.75198z" fill="#ffffff" stroke="none" stroke-width="0"/></g></g></svg>