<svg version="1.1" xmlns="http://www.w3.org/2000/svg" xmlns:xlink="http://www.w3.org/1999/xlink" width="94.83334" height="94.83334" viewBox="0,0,94.83334,94.83334"><defs><linearGradient x1="320.00001" y1="135.63062" x2="320.00001" y2="224.96396" gradientUnits="userSpaceOnUse" id="color-1"><stop offset="0" stop-color="#2e4eff"/><stop offset="1" stop-color="#26cdff"/></linearGradient><linearGradient x1="320.00001" y1="135.63062" x2="320.00001" y2="224.96396" gradientUnits="userSpaceOnUse" id="color-2"><stop offset="0" stop-color="#26cdff"/><stop offset="1" stop-color="#2e4eff"/></linearGradient></defs><g transform="translate(-272.58334,-132.88062)"><g stroke-miterlimit="10"><path d="M275.33334,180.29729c0,-24.66872 19.99795,-44.66667 44.66667,-44.66667c24.66872,0 44.66667,19.99795 44.66667,44.66667c0,24.66872 -19.99795,44.66667 -44.66667,44.66667c-24.66872,0 -44.66667,-19.99795 -44.66667,-44.66667z" fill="url(#color-1)" stroke="url(#color-2)" stroke-width="5.5"/><path d="M310.55418,205.12632v-49.65806h18.89165v49.65806z" fill="#00c7ff" stroke="none" stroke-width="0"/><path d="M329.5861,205.12632v-40.02022h18.89165v40.02022z" fill="#5fdcff" stroke="none" stroke-width="0"/><path d="M291.52225,205.12632v-33.63003h18.89165v33.63003z" fill="#009bc5" stroke="none" stroke-width="0"/><text transform="translate(315.93563,167.6637) scale(0.35528,0.35528)" font-size="40" xml:space="preserve" fill="#ffb300" stroke="none" stroke-width="1" font-family="Sans Serif" font-weight="normal" text-anchor="start"><tspan x="0" dy="0">1</tspan></text><text transform="translate(335.09716,177.15059) scale(0.35528,0.35528)" font-size="40" xml:space="preserve" fill="#a9a9a9" stroke="none" stroke-width="1" font-family="Sans Serif" font-weight="normal" text-anchor="start"><tspan x="0" dy="0">2</tspan></text><text transform="translate(296.81292,183.00464) scale(0.35528,0.35528)" font-size="40" xml:space="preserve" fill="#bf7b47" stroke="none" stroke-width="1" font-family="Sans Serif" font-weight="normal" text-anchor="start"><tspan x="0" dy="0">3</tspan></text></g></g></svg>