<svg version="1.1" xmlns="http://www.w3.org/2000/svg" xmlns:xlink="http://www.w3.org/1999/xlink" width="74.68063" height="74.68064" viewBox="0,0,74.68063,74.68064"><defs><linearGradient x1="320" y1="144.65968" x2="320" y2="215.34032" gradientUnits="userSpaceOnUse" id="color-1"><stop offset="0" stop-color="#2e4eff"/><stop offset="1" stop-color="#26cdff"/></linearGradient><linearGradient x1="320" y1="144.65968" x2="320" y2="215.34032" gradientUnits="userSpaceOnUse" id="color-2"><stop offset="0" stop-color="#26cdff"/><stop offset="1" stop-color="#2e4eff"/></linearGradient><linearGradient x1="320.24839" y1="179.62742" x2="320.24839" y2="194.47848" gradientUnits="userSpaceOnUse" id="color-3"><stop offset="0" stop-color="#ffec19"/><stop offset="1" stop-color="#ffffff"/></linearGradient><linearGradient x1="320.00001" y1="156.13494" x2="320.00001" y2="180.37258" gradientUnits="userSpaceOnUse" id="color-4"><stop offset="0" stop-color="#ffec19"/><stop offset="1" stop-color="#ffffff"/></linearGradient></defs><g transform="translate(-282.65969,-142.65968)"><g stroke-miterlimit="10"><path d="M284.65969,180c0,-19.51791 15.8224,-35.34032 35.34031,-35.34032c19.51792,0 35.34032,15.8224 35.34032,35.34032c0,19.51791 -15.8224,35.34032 -35.34032,35.34032c-19.51792,0 -35.34031,-15.8224 -35.34031,-35.34032z" fill="url(#color-1)" stroke="url(#color-2)" stroke-width="4"/><g stroke="none"><path d="M325.09191,203.86506v-24.23764h13.41282v24.23764z" fill="#ffffff" stroke-width="0.5"/><path d="M301.99206,203.86506v-24.23764h13.41282v24.23764z" fill="#ffffff" stroke-width="0.5"/><path d="M301.99206,194.47848v-14.85106h36.51267v14.85106z" fill="url(#color-3)" stroke-width="0.5"/><path d="M295.76237,180.37258l24.23763,-24.23764l24.23764,24.23764z" fill="url(#color-4)" stroke-width="0"/></g></g></g></svg>