<svg version="1.1" xmlns="http://www.w3.org/2000/svg" xmlns:xlink="http://www.w3.org/1999/xlink" width="66.2595" height="66.2595" viewBox="0,0,66.2595,66.2595"><defs><linearGradient x1="320.00001" y1="148.62024" x2="320.00001" y2="211.37975" gradientUnits="userSpaceOnUse" id="color-1"><stop offset="0" stop-color="#ffad00"/><stop offset="1" stop-color="#8000ff"/></linearGradient><linearGradient x1="320" y1="148.62025" x2="320" y2="211.37975" gradientUnits="userSpaceOnUse" id="color-2"><stop offset="0" stop-color="#8000ff"/><stop offset="1" stop-color="#ffad00"/></linearGradient></defs><g transform="translate(-286.87025,-146.87025)"><g stroke-miterlimit="10"><path d="M288.62025,211.37975v-62.7595h62.7595v62.7595z" fill="url(#color-1)" stroke="url(#color-2)" stroke-width="3.5"/><path d="M315.43211,180c0,-2.52278 2.04512,-4.5679 4.56789,-4.5679c2.52278,0 4.5679,2.04512 4.5679,4.5679c0,2.52278 -2.04512,4.56789 -4.5679,4.56789c-2.52278,0 -4.56789,-2.04512 -4.56789,-4.56789z" fill-opacity="0.38824" fill="#ffffff" stroke="none" stroke-width="0.5"/><path d="M331.70309,179.48347c0,-2.52278 2.04512,-4.56789 4.5679,-4.56789c2.52278,0 4.56789,2.04512 4.56789,4.56789c0,2.52278 -2.04512,4.56789 -4.56789,4.56789c-2.52278,0 -4.5679,-2.04512 -4.5679,-4.56789z" fill-opacity="0.38824" fill="#ffffff" stroke="none" stroke-width="0.5"/><path d="M298.64459,180c0,-2.52278 2.04512,-4.5679 4.5679,-4.5679c2.52278,0 4.56789,2.04512 4.56789,4.5679c0,2.52278 -2.04512,4.56789 -4.56789,4.56789c-2.52278,0 -4.5679,-2.04512 -4.5679,-4.56789z" fill-opacity="0.38824" fill="#ffffff" stroke="none" stroke-width="0.5"/></g></g></svg>