<svg version="1.1" xmlns="http://www.w3.org/2000/svg" xmlns:xlink="http://www.w3.org/1999/xlink" width="146.21583" height="46.44888" viewBox="0,0,146.21583,46.44888"><defs><radialGradient cx="320" cy="180" r="72.10792" gradientUnits="userSpaceOnUse" id="color-1"><stop offset="0" stop-color="#00e704"/><stop offset="1" stop-color="#00a303"/></radialGradient><linearGradient x1="320" y1="157.75132" x2="320" y2="202.24868" gradientUnits="userSpaceOnUse" id="color-2"><stop offset="0" stop-color="#00a303"/><stop offset="1" stop-color="#00ff04"/></linearGradient></defs><g transform="translate(-246.89208,-156.75132)"><g stroke-miterlimit="10"><path d="M271.44445,202.2002c0,0 -9.47992,-0.24316 -15.56047,-5.12996c-6.20982,-4.99069 -7.9919,-14.66556 -7.9919,-18.42663c0,-3.25685 3.26229,-13.00619 8.65272,-16.96126c6.74763,-4.95089 14.89965,-3.81977 14.89965,-3.81977h95.893c0,0 8.62915,-0.80033 17.14521,5.48872c6.36623,4.70142 7.62525,14.22594 7.62525,17.53421c0,3.29775 -2.02506,12.83269 -8.88954,17.22699c-7.63325,4.88643 -15.88092,4.08771 -15.88092,4.08771z" fill="url(#color-1)" stroke="url(#color-2)" stroke-width="2"/><text transform="translate(264.77851,185.76875) scale(0.45949,0.5)" font-size="40" xml:space="preserve" fill="#ffffff" stroke="none" stroke-width="1" font-family="Sans Serif" font-weight="normal" text-anchor="start"><tspan x="0" dy="0">MORE GAME</tspan></text></g></g></svg>